<?xml version="1.0" standalone="no"?>
<!DOCTYPE svg PUBLIC "-//W3C//DTD SVG 20010904//EN"
 "http://www.w3.org/TR/2001/REC-SVG-20010904/DTD/svg10.dtd">
<svg version="1.0" xmlns="http://www.w3.org/2000/svg"
 width="512.000000pt" height="512.000000pt" viewBox="0 0 512.000000 512.000000"
 preserveAspectRatio="xMidYMid meet">
<metadata>
Created by potrace 1.11, written by Peter Selinger 2001-2013
</metadata>
<g transform="translate(0.000000,512.000000) scale(0.100000,-0.100000)"
fill="#000000" stroke="none">
<path d="M2330 5110 c-481 -43 -952 -231 -1350 -538 -109 -84 -348 -323 -432
-432 -213 -276 -366 -580 -453 -897 -217 -791 -54 -1606 453 -2263 84 -109
323 -348 432 -432 343 -264 731 -437 1140 -508 718 -125 1432 55 2020 508 109
84 348 323 432 432 264 343 437 731 508 1140 125 718 -55 1432 -508 2020 -84
109 -323 348 -432 432 -526 406 -1165 595 -1810 538z m440 -191 c915 -83 1699
-687 2018 -1555 48 -130 95 -317 119 -474 24 -159 24 -501 0 -660 -63 -409
-209 -762 -453 -1090 -98 -132 -338 -373 -469 -471 -858 -639 -1993 -637
-2854 3 -125 93 -367 336 -462 463 -226 303 -370 632 -438 1000 -184 985 281
1978 1162 2485 411 235 903 343 1377 299z"/>
<path d="M2395 4714 c-453 -48 -789 -176 -1132 -432 -216 -162 -428 -399 -568
-637 -362 -615 -389 -1391 -70 -2034 179 -359 425 -637 760 -856 113 -75 233
-140 242 -132 2 3 17 256 33 564 16 307 31 597 35 644 l6 86 -90 32 c-112 41
-194 95 -270 177 -178 194 -274 501 -258 824 17 342 230 679 512 810 98 46
155 60 237 60 108 0 241 -45 347 -118 122 -83 268 -267 330 -415 61 -147 75
-225 75 -397 0 -324 -87 -580 -263 -772 -69 -75 -152 -128 -262 -168 l-89 -32
1 -36 c0 -20 17 -347 37 -726 l37 -689 60 -14 c268 -61 575 -65 853 -12 131
25 283 69 287 83 4 12 65 1199 65 1252 0 29 -4 33 -60 52 -97 33 -189 90 -267
167 -117 116 -118 119 -118 435 1 146 7 335 14 420 14 168 73 733 92 880 l12
90 68 0 69 0 0 -725 0 -725 65 0 65 0 0 725 0 725 75 0 75 0 0 -725 0 -725 65
0 65 0 0 725 0 725 75 0 75 0 0 -725 0 -725 65 0 65 0 0 725 0 725 54 0 53 0
12 -90 c17 -130 78 -711 92 -880 7 -80 13 -266 13 -415 1 -322 1 -324 -117
-440 -78 -77 -170 -134 -267 -167 l-60 -21 0 -56 c0 -31 11 -265 25 -521 14
-256 25 -480 25 -497 0 -18 3 -33 8 -33 4 0 46 26 94 57 522 348 859 874 955
1493 12 81 17 173 17 310 0 273 -32 469 -118 717 -162 464 -502 878 -939 1142
-222 134 -504 234 -777 276 -102 15 -405 27 -485 19z"/>
<path d="M1352 3183 c-82 -116 -142 -344 -129 -492 12 -144 101 -352 195 -452
58 -63 163 -139 193 -139 36 0 29 22 -32 103 -72 94 -109 171 -170 347 l-43
125 1 160 c0 119 4 179 18 235 10 41 18 88 19 105 1 40 -26 44 -52 8z"/>
</g>
</svg>
